<?xml version="1.0" encoding="utf-8"?>
<!-- Generator: Adobe Illustrator 24.3.0, SVG Export Plug-In . SVG Version: 6.00 Build 0)  -->
<svg version="1.1" id="Слой_1" xmlns="http://www.w3.org/2000/svg" xmlns:xlink="http://www.w3.org/1999/xlink" x="0px" y="0px"
	 viewBox="0 0 100 100" style="enable-background:new 0 0 100 100;" xml:space="preserve">
<style type="text/css">
	.st0{fill:none;stroke:#e74c3c;stroke-width:2;stroke-miterlimit:10;}
	.st1{fill:none;stroke:#e74c3c;stroke-miterlimit:10;}
	.st2{fill:none;stroke:#c0392b;stroke-width:2;stroke-miterlimit:10;}
</style>
<g>
	<path class="st0" d="M45,38.5"/>
	<polyline class="st1" points="17,48.4 19,46.2 21,47.3 22.5,46.2 25,45.1 26,45.1 27,45.1 30,45.1 32.4,46.7 34,45.1 35.5,44.5 
		35.5,43.4 36.8,43.4 38.5,42.3 40.5,42.3 43.5,41.2 45,39 48.2,35.9 	"/>
	<polyline class="st1" points="40.5,84.1 42.5,81.9 42.5,79.7 45,78.8 45,77.4 47.5,75.3 48,74.4 	"/>
	<polyline class="st1" points="46.5,95.1 45.5,90.7 47.5,87.4 48.2,81.3 50,79.1 	"/>
	<polyline class="st1" points="62.5,47.8 60,48.4 58,51.4 56.5,54.4 52.1,57.8 	"/>
	<polyline class="st1" points="62.2,47.8 59.5,45.6 55.5,43.4 54.5,41.2 51,39.6 50.5,36.8 51.5,34.6 50.5,31.9 	"/>
	<polyline class="st1" points="34.5,68.7 34.5,61 38.6,57.8 43.3,57.8 45,56.6 45.5,56.3 46.5,53.3 50,49.2 55.5,43.4 	"/>
	<polyline class="st1" points="45,56.6 44.2,60.3 42.5,59.9 41.5,62.1 39.2,62.1 38.5,64.3 36.5,65.4 34.5,65.4 32.6,67.3 	"/>
	<polyline class="st1" points="50.5,31.3 50.5,25.8 53.6,21.5 56.3,17.5 57.9,16.5 57.3,14.1 58.5,10.4 57,8.8 	"/>
	<polyline class="st1" points="74,53.8 71,50.5 69.7,52.2 67.9,50.5 67.1,50.5 65,44 61.8,43.4 60,41.8 58.5,41.8 56.3,36.6 
		57.3,34.4 56.3,28.8 55.5,26.2 56.5,23.6 58.5,20 57.9,16.5 	"/>
	<polyline class="st1" points="56.5,73.1 53,67.3 54.5,62 52.5,59.2 	"/>
	<path class="st2" d="M56,0l1,8.8l-4,7.7l1,1.1l-1,2l1,3.5l-2,5.5L50,33l-2,3.3l1,7.7l1,4.4l0.9,5.6l1.6,5.3L51,64.8v3.3l-3,6.3
		l1,1.4l1,3.3l4,4.4l4,8.8l-1,3.3c0,0,0,3.3,0,4.4"/>
</g>
</svg>
