<?xml version="1.0" encoding="utf-8"?>
<!-- Generator: Adobe Illustrator 24.3.0, SVG Export Plug-In . SVG Version: 6.00 Build 0)  -->
<svg version="1.1" id="Слой_1" xmlns="http://www.w3.org/2000/svg" xmlns:xlink="http://www.w3.org/1999/xlink" x="0px" y="0px"
	 viewBox="0 0 158 159.6" style="enable-background:new 0 0 158 159.6;" xml:space="preserve">
<style type="text/css">
	.st0{fill:url(#SVGID_1_);}
	.st1{fill:url(#SVGID_2_);}
	.st2{fill:url(#SVGID_3_);}
	.st3{fill:url(#SVGID_4_);}
	.st4{fill:#FFFFFF;}
	.st5{fill:url(#SVGID_5_);}
</style>
<g>
	<linearGradient id="SVGID_1_" gradientUnits="userSpaceOnUse" x1="81" y1="159.6404" x2="81" y2="103.7404">
		<stop  offset="0.6262" style="stop-color:#C0392B"/>
		<stop  offset="0.9078" style="stop-color:#E74C3C"/>
	</linearGradient>
	<path class="st0" d="M113.3,103.7H48.4c-41.6,14.7-31.7,55.9-31.7,55.9s22.4-55.1,64.3-30.2c42-24.9,64.1,30.2,64.1,30.2
		S155.7,118.2,113.3,103.7z"/>
	<linearGradient id="SVGID_2_" gradientUnits="userSpaceOnUse" x1="79.0004" y1="128.834" x2="79.0004" y2="-9.094947e-13">
		<stop  offset="0.1743" style="stop-color:#C1272D"/>
		<stop  offset="0.4206" style="stop-color:#8135AB"/>
		<stop  offset="0.6441" style="stop-color:#7933A3"/>
		<stop  offset="0.9122" style="stop-color:#662D91"/>
	</linearGradient>
	<path class="st1" d="M48.7,109.9l32,18.9l32.7-19.1C158.8,78.5,158,29.4,158,29.4L153.2,0l-0.5,0.5c0,0-18.4,75.3-73.4,75.3h-0.2
		c-55,0-73-75.3-73-75.3L5.6,0L0,29.4C0,29.4,3.1,78.9,48.7,109.9"/>
</g>
<linearGradient id="SVGID_3_" gradientUnits="userSpaceOnUse" x1="113.6266" y1="105.017" x2="113.6266" y2="105.017">
	<stop  offset="0.6791" style="stop-color:#C1272D"/>
	<stop  offset="1" style="stop-color:#662D91"/>
</linearGradient>
<path class="st2" d="M113.6,105"/>
<linearGradient id="SVGID_4_" gradientUnits="userSpaceOnUse" x1="48.6866" y1="105.017" x2="48.6866" y2="105.017">
	<stop  offset="0.6791" style="stop-color:#C1272D"/>
	<stop  offset="1" style="stop-color:#662D91"/>
</linearGradient>
<path class="st3" d="M48.7,105"/>
<path class="st4" d="M48.7,105"/>
<linearGradient id="SVGID_5_" gradientUnits="userSpaceOnUse" x1="48.6866" y1="105.017" x2="48.6866" y2="105.017">
	<stop  offset="0.1922" style="stop-color:#C1272D"/>
	<stop  offset="0.4966" style="stop-color:#8135AB"/>
	<stop  offset="0.6709" style="stop-color:#7933A3"/>
	<stop  offset="0.8228" style="stop-color:#662D91"/>
</linearGradient>
<path class="st5" d="M48.7,105"/>
</svg>
